<svg width="166" height="60" viewBox="0 0 166 60" fill="none" xmlns="http://www.w3.org/2000/svg">
<path d="M12.386 22.1H15.95V37.5H12.386V22.1ZM5.39 37.5H1.826V22.1H5.39V37.5ZM12.65 31.186H5.126V28.172H12.65V31.186ZM23.4216 37.5V31.208L24.2356 33.364L17.4596 22.1H21.2436L26.4356 30.746H24.2576L29.4716 22.1H32.9696L26.1936 33.364L26.9856 31.208V37.5H23.4216ZM34.3319 37.5V22.1H40.9979C42.3765 22.1 43.5645 22.3273 44.5619 22.782C45.5592 23.222 46.3292 23.86 46.8719 24.696C47.4145 25.532 47.6859 26.5293 47.6859 27.688C47.6859 28.832 47.4145 29.822 46.8719 30.658C46.3292 31.494 45.5592 32.1393 44.5619 32.594C43.5645 33.034 42.3765 33.254 40.9979 33.254H36.3119L37.8959 31.648V37.5H34.3319ZM37.8959 32.044L36.3119 30.35H40.7999C41.8999 30.35 42.7212 30.1153 43.2639 29.646C43.8065 29.1767 44.0779 28.524 44.0779 27.688C44.0779 26.8373 43.8065 26.1773 43.2639 25.708C42.7212 25.2387 41.8999 25.004 40.7999 25.004H36.3119L37.8959 23.31V32.044ZM53.5083 28.304H60.9223V31.076H53.5083V28.304ZM53.7723 34.64H62.1543V37.5H50.2303V22.1H61.8683V24.96H53.7723V34.64ZM64.9901 37.5V22.1H71.6561C73.0347 22.1 74.2227 22.3273 75.2201 22.782C76.2174 23.222 76.9874 23.86 77.5301 24.696C78.0727 25.532 78.3441 26.5293 78.3441 27.688C78.3441 28.832 78.0727 29.822 77.5301 30.658C76.9874 31.4793 76.2174 32.11 75.2201 32.55C74.2227 32.99 73.0347 33.21 71.6561 33.21H66.9701L68.5541 31.648V37.5H64.9901ZM74.7801 37.5L70.9301 31.912H74.7361L78.6301 37.5H74.7801ZM68.5541 32.044L66.9701 30.372H71.4581C72.5581 30.372 73.3794 30.1373 73.9221 29.668C74.4647 29.184 74.7361 28.524 74.7361 27.688C74.7361 26.8373 74.4647 26.1773 73.9221 25.708C73.3794 25.2387 72.5581 25.004 71.4581 25.004H66.9701L68.5541 23.31V32.044ZM84.4458 28.304H91.8598V31.076H84.4458V28.304ZM84.7098 34.64H93.0918V37.5H81.1678V22.1H92.8058V24.96H84.7098V34.64ZM100.988 37.764C99.7556 37.764 98.5749 37.6027 97.4456 37.28C96.3162 36.9427 95.4069 36.51 94.7176 35.982L95.9276 33.298C96.5876 33.7673 97.3649 34.156 98.2596 34.464C99.1689 34.7573 100.086 34.904 101.01 34.904C101.714 34.904 102.278 34.838 102.704 34.706C103.144 34.5593 103.466 34.3613 103.672 34.112C103.877 33.8627 103.98 33.5767 103.98 33.254C103.98 32.8433 103.818 32.5207 103.496 32.286C103.173 32.0367 102.748 31.8387 102.22 31.692C101.692 31.5307 101.105 31.384 100.46 31.252C99.8289 31.1053 99.1909 30.9293 98.5456 30.724C97.9149 30.5187 97.3356 30.2547 96.8076 29.932C96.2796 29.6093 95.8469 29.184 95.5096 28.656C95.1869 28.128 95.0256 27.4533 95.0256 26.632C95.0256 25.752 95.2602 24.9527 95.7296 24.234C96.2136 23.5007 96.9322 22.9213 97.8856 22.496C98.8536 22.056 100.064 21.836 101.516 21.836C102.484 21.836 103.437 21.9533 104.376 22.188C105.314 22.408 106.143 22.7453 106.862 23.2L105.762 25.906C105.043 25.4953 104.324 25.1947 103.606 25.004C102.887 24.7987 102.183 24.696 101.494 24.696C100.804 24.696 100.24 24.7767 99.7996 24.938C99.3596 25.0993 99.0442 25.312 98.8536 25.576C98.6629 25.8253 98.5676 26.1187 98.5676 26.456C98.5676 26.852 98.7289 27.1747 99.0516 27.424C99.3742 27.6587 99.7996 27.8493 100.328 27.996C100.856 28.1427 101.435 28.2893 102.066 28.436C102.711 28.5827 103.349 28.7513 103.98 28.942C104.625 29.1327 105.212 29.3893 105.74 29.712C106.268 30.0347 106.693 30.46 107.016 30.988C107.353 31.516 107.522 32.1833 107.522 32.99C107.522 33.8553 107.28 34.6473 106.796 35.366C106.312 36.0847 105.586 36.664 104.618 37.104C103.664 37.544 102.454 37.764 100.988 37.764ZM112.932 37.5V25.004H108.004V22.1H121.424V25.004H116.496V37.5H112.932ZM120.544 37.5L127.408 22.1H130.928L137.814 37.5H134.074L128.442 23.904H129.85L124.196 37.5H120.544ZM123.976 34.2L124.922 31.494H132.842L133.81 34.2H123.976ZM141.829 37.5V25.004H136.901V22.1H150.321V25.004H145.393V37.5H141.829ZM155.516 28.304H162.93V31.076H155.516V28.304ZM155.78 34.64H164.162V37.5H152.238V22.1H163.876V24.96H155.78V34.64Z" fill="white"/>
</svg>
